# xmcd
#
# Track frame offsets: 
#        150
#        12005
#        25812
#        41300
#        57522
#        80465
#        93780
#        108695
#        126440
#        151430
#        164020
#        181877
#        195350
#        209382
#        235290
#
# Disc length: 3284 seconds
#
# Revision: 1
# Processed by: cddbd v1.5.2PL0 Copyright (c) Steve Scherf et al.
# Submitted via: ExactAudioCopyFreeDBPlugin 1.0
#
DISCID=c00cd20f
DTITLE=The Movers - On the Move (Blues That Move)
DYEAR=1996
DGENRE=Blues
TTITLE0=Strollin' with the Bone
TTITLE1=Ain't That Lovin' You
TTITLE2=Cat Scratchin'
TTITLE3=Rocket 88
TTITLE4=I Want a Little Girl
TTITLE5=You Upset Me Baby
TTITLE6=Quiet Whiskey
TTITLE7=Why Get Up
TTITLE8=Boogie All Night
TTITLE9=Why Not
TTITLE10=Boogie Woogie Country Girl
TTITLE11=Too Tired
TTITLE12=Rocket Boogie "88"
TTITLE13=Right Place, Wrong Time
TTITLE14=Rock Doc
EXTD=From NH
EXTT0=
EXTT1=
EXTT2=
EXTT3=
EXTT4=
EXTT5=
EXTT6=
EXTT7=
EXTT8=
EXTT9=
EXTT10=
EXTT11=
EXTT12=
EXTT13=
EXTT14=
PLAYORDER=
